<!DOCTYPE svg PUBLIC "-//W3C//DTD SVG 1.1//EN" "http://www.w3.org/Graphics/SVG/1.1/DTD/svg11.dtd">
<!-- Uploaded to: SVG Repo, www.svgrepo.com, Transformed by: SVG Repo Mixer Tools -->
<svg width="800px" height="800px" viewBox="0 0 24 24" xmlns="http://www.w3.org/2000/svg" fill="none" stroke="#e00000">
<g id="SVGRepo_bgCarrier" stroke-width="0"/>
<g id="SVGRepo_tracerCarrier" stroke-linecap="round" stroke-linejoin="round"/>
<g id="SVGRepo_iconCarrier">
<path stroke="#e00000" stroke-linecap="round" stroke-linejoin="round" stroke-width="2" d="M20 20H5a2 2 0 0 1-2-2V9a2 2 0 0 1 2-2h2m2-3h4.93a2 2 0 0 1 1.664.89l.812 1.22A2 2 0 0 0 18.07 7H19a2 2 0 0 1 2 2v6.5M9.5 9.877a4 4 0 1 0 5.5 5.768M3 3l18 18"/>
</g>
</svg>