<!DOCTYPE svg PUBLIC "-//W3C//DTD SVG 1.1//EN" "http://www.w3.org/Graphics/SVG/1.1/DTD/svg11.dtd">
<!-- Uploaded to: SVG Repo, www.svgrepo.com, Transformed by: SVG Repo Mixer Tools -->
<svg width="800px" height="800px" viewBox="0 0 24 24" xmlns="http://www.w3.org/2000/svg" fill="none">
<g id="SVGRepo_bgCarrier" stroke-width="0"/>
<g id="SVGRepo_tracerCarrier" stroke-linecap="round" stroke-linejoin="round"/>
<g id="SVGRepo_iconCarrier">
<path stroke="#3182ce" stroke-linecap="round" stroke-linejoin="round" stroke-width="2" d="m10 6 2 5m0 0h3a2 2 0 0 0 2-2V5a2 2 0 0 0-2-2H9a2 2 0 0 0-2 2v4a2 2 0 0 0 2 2h3z"/>
<path stroke="#3182ce" stroke-linecap="round" stroke-linejoin="round" stroke-width="2" d="M17 5h2a2 2 0 0 1 2 2v12a2 2 0 0 1-2 2H5a2 2 0 0 1-2-2V7a2 2 0 0 1 2-2h2m3 12h4"/>
</g>
</svg>